<?xml version="1.0" encoding="UTF-8"?>
<svg width="249px" height="100px" viewBox="0 0 249 100" version="1.1" xmlns="http://www.w3.org/2000/svg" xmlns:xlink="http://www.w3.org/1999/xlink">
    <!-- Generator: Sketch 55.2 (78181) - https://sketchapp.com -->
    <title>logo2</title>
    <desc>Created with Sketch.</desc>
    <g id="Page-1" stroke="none" stroke-width="1" fill="none" fill-rule="evenodd">
        <g id="Artboard-Copy-6" transform="translate(-126.000000, -200.000000)" fill="#FE0545" fill-rule="nonzero">
            <g id="logo2" transform="translate(126.000000, 200.000000)">
                <path d="M56.5942482,93.7200387 C56.5942482,93.9456708 56.5626206,94.2009873 56.4993643,94.4859962 L50.8241211,94.4859962 C50.922959,94.8897587 51.1562129,95.2361185 51.5238898,95.5250858 C51.8915668,95.8140531 52.3145866,95.9585345 52.792962,95.9585345 C53.1408714,95.9585345 53.4522061,95.8793666 53.7269754,95.7210284 C54.0017447,95.5626901 54.2162197,95.3667495 54.3704068,95.1332005 L56.2443639,95.1332005 C55.9952924,95.8378058 55.554482,96.4008877 54.9219195,96.8224633 C54.289357,97.2440389 53.5797116,97.4548235 52.792962,97.4548235 C51.7334198,97.4548235 50.8330202,97.095599 50.091736,96.3771392 C49.3504518,95.6586794 48.9798153,94.7729881 48.9798153,93.7200387 C48.9798153,92.6670894 49.3524285,91.7833773 50.0976662,91.068876 C50.8429039,90.3543746 51.7492338,89.9971293 52.816683,89.9971293 C53.8604111,89.9971293 54.7509271,90.358333 55.4882578,91.0807513 C56.2255884,91.8031695 56.5942482,92.6829232 56.5942482,93.7200387 Z M50.8478421,93.0372085 L54.7499424,93.0372085 C54.6590116,92.5899029 54.4415715,92.2148448 54.0976156,91.9120229 C53.7536598,91.609201 53.3266865,91.4577923 52.816683,91.4577923 C52.3145865,91.4577923 51.8836598,91.609201 51.5238898,91.9120229 C51.1641199,92.2148448 50.9387729,92.5899029 50.8478421,93.0372085 Z M59.8890126,97.2470056 L58.1633117,97.2470056 L58.1633117,90.2049472 L59.8890126,90.2049472 L59.8890126,91.2856004 L59.9127336,91.2856004 C60.3515738,90.4266154 61.0315683,89.9971293 61.9527374,89.9971293 C62.7632081,89.9971293 63.4214586,90.2752067 63.9275086,90.8313698 C64.4335586,91.3875329 64.6865798,92.1069715 64.6865798,92.9897072 L64.6865798,97.2470056 L62.9608788,97.2470056 L62.9608788,93.114398 C62.9608788,92.6829262 62.8106475,92.3157849 62.5101803,92.012963 C62.2097131,91.7101411 61.8499486,91.5587325 61.430876,91.5587325 C60.9999428,91.5587325 60.6352364,91.7101411 60.336746,92.012963 C60.0382556,92.3157849 59.8890126,92.6829262 59.8890126,93.114398 L59.8890126,97.2470056 Z M72.8263532,90.2049472 L70.0925109,97.2470056 L68.4439031,97.2470056 L65.7100608,90.2049472 L67.4950641,90.2049472 L69.268207,95.0203851 L69.291928,95.0203851 L71.0413499,90.2049472 L72.8263532,90.2049472 Z M74.0929742,90.2049472 L75.8186751,90.2049472 L75.8186751,97.2470056 L74.0929742,97.2470056 L74.0929742,90.2049472 Z M76.2397225,87.5330026 L76.2397225,88.7977231 L73.6541362,89.4389898 L73.6541362,88.4295885 L76.2397225,87.5330026 Z M83.4840291,93.7200387 C83.4840291,93.1262703 83.2754843,92.6176163 82.8583884,92.1940615 C82.4412925,91.7705067 81.9342617,91.5587325 81.3372809,91.5587325 C80.7442536,91.5587325 80.2372228,91.7714963 79.8161734,92.1970303 C79.395124,92.6225644 79.1846024,93.1302288 79.1846024,93.7200387 C79.1846024,94.3217241 79.395124,94.8353261 79.8161734,95.2608601 C80.2372228,95.6863942 80.7442536,95.899158 81.3372809,95.899158 C81.9382153,95.899158 82.4462344,95.6863942 82.8613535,95.2608601 C83.2764727,94.8353261 83.4840291,94.3217241 83.4840291,93.7200387 Z M85.280893,93.7200387 C85.280893,94.7729881 84.8904892,95.6586794 84.1096698,96.3771392 C83.3288505,97.095599 82.4047301,97.4548235 81.3372809,97.4548235 C80.2777387,97.4548235 79.3546067,97.095599 78.5678571,96.3771392 C77.7811075,95.6586794 77.3877386,94.7729881 77.3877386,93.7200387 C77.3877386,92.6750063 77.7801191,91.7932734 78.5648919,91.0748136 C79.3496648,90.3563538 80.2727968,89.9971293 81.3343158,89.9971293 C82.3958347,89.9971293 83.3189667,90.3563538 84.1037396,91.0748136 C84.8885124,91.7932734 85.280893,92.6750063 85.280893,93.7200387 Z M92.5726416,92.3840665 L90.9003129,92.3840665 C90.9003129,92.06739 90.786651,91.8219694 90.5593238,91.6477973 C90.3319967,91.4736252 90.0285689,91.3865405 89.6490314,91.3865405 C89.285308,91.3865405 89.0125195,91.4577916 88.8306578,91.600296 C88.6487961,91.7428005 88.5578666,91.9268659 88.5578666,92.1524979 C88.5578666,92.3860468 88.6626332,92.5661539 88.8721695,92.6928245 C89.0817058,92.8194951 89.3446107,92.898663 89.6608919,92.9303307 C89.9771732,92.9619983 90.3171704,93.0164263 90.6808938,93.0936162 C91.0446173,93.1708061 91.3846145,93.2658076 91.7008958,93.3786236 C92.017177,93.4914396 92.2800819,93.7061826 92.4896182,94.0228591 C92.6991545,94.3395356 92.8039211,94.7452713 92.8039211,95.2400783 C92.8039211,95.9763512 92.510377,96.5295371 91.9232799,96.8996528 C91.3361828,97.2697685 90.5781076,97.4548235 89.6490314,97.4548235 C88.7357693,97.4548235 88.0014148,97.2381013 87.4459459,96.8046503 C86.8904769,96.3711994 86.6127466,95.7922838 86.6127466,95.0678863 L88.3028661,95.0678863 C88.3028661,95.3608121 88.4283883,95.5983159 88.6794366,95.7804049 C88.9304848,95.9624939 89.2536799,96.053537 89.6490314,96.053537 C90.0601971,96.053537 90.3893223,95.9832755 90.636417,95.8427503 C90.8835117,95.7022251 91.0070572,95.5013364 91.0070572,95.2400783 C91.0070572,94.9906956 90.9022907,94.8006925 90.6927543,94.6700635 C90.483218,94.5394344 90.2222899,94.4602665 89.9099622,94.4325573 C89.5976344,94.4048481 89.2596139,94.3563577 88.8958905,94.2870848 C88.532167,94.2178118 88.1941465,94.1287479 87.8818188,94.0198903 C87.5694911,93.9110328 87.308563,93.6982689 87.0990266,93.3815924 C86.8894903,93.0649159 86.7847237,92.6552219 86.7847237,92.1524979 C86.7847237,91.4558096 87.0397216,90.9224157 87.5497252,90.5523 C88.0597287,90.1821843 88.7594904,89.9971293 89.6490314,89.9971293 C90.5543865,89.9971293 91.2679854,90.2089035 91.7898494,90.6324583 C92.3117135,91.0560132 92.5726416,91.6398767 92.5726416,92.3840665 Z M104.570553,90.2049472 L101.047988,99.3251847 L99.2748449,99.3251847 L100.13473,97.0866889 L97.4661206,90.2049472 L99.2511239,90.2049472 L101.012406,94.901632 L101.036127,94.901632 L102.785549,90.2049472 L104.570553,90.2049472 Z M116.841255,93.7200387 C116.841255,93.9456708 116.809627,94.2009873 116.746371,94.4859962 L111.071128,94.4859962 C111.169965,94.8897587 111.403219,95.2361185 111.770896,95.5250858 C112.138573,95.8140531 112.561593,95.9585345 113.039969,95.9585345 C113.387878,95.9585345 113.699213,95.8793666 113.973982,95.7210284 C114.248751,95.5626901 114.463226,95.3667495 114.617413,95.1332005 L116.49137,95.1332005 C116.242299,95.8378058 115.801489,96.4008877 115.168926,96.8224633 C114.536364,97.2440389 113.826718,97.4548235 113.039969,97.4548235 C111.980426,97.4548235 111.080027,97.095599 110.338743,96.3771392 C109.597458,95.6586794 109.226822,94.7729881 109.226822,93.7200387 C109.226822,92.6670894 109.599435,91.7833773 110.344673,91.068876 C111.08991,90.3543746 111.99624,89.9971293 113.063689,89.9971293 C114.107418,89.9971293 114.997934,90.358333 115.735264,91.0807513 C116.472595,91.8031695 116.841255,92.6829232 116.841255,93.7200387 Z M111.094849,93.0372085 L114.996949,93.0372085 C114.906018,92.5899029 114.688578,92.2148448 114.344622,91.9120229 C114.000666,91.609201 113.573693,91.4577923 113.063689,91.4577923 C112.561593,91.4577923 112.130666,91.609201 111.770896,91.9120229 C111.411126,92.2148448 111.185779,92.5899029 111.094849,93.0372085 Z M120.136019,97.2470056 L118.410318,97.2470056 L118.410318,90.2049472 L120.136019,90.2049472 L120.136019,91.2856004 L120.15974,91.2856004 C120.59858,90.4266154 121.278575,89.9971293 122.199744,89.9971293 C123.010215,89.9971293 123.668465,90.2752067 124.174515,90.8313698 C124.680565,91.3875329 124.933586,92.1069715 124.933586,92.9897072 L124.933586,97.2470056 L123.207885,97.2470056 L123.207885,93.114398 C123.207885,92.6829262 123.057654,92.3157849 122.757187,92.012963 C122.45672,91.7101411 122.096955,91.5587325 121.677882,91.5587325 C121.246949,91.5587325 120.882243,91.7101411 120.583752,92.012963 C120.285262,92.3157849 120.136019,92.6829262 120.136019,93.114398 L120.136019,97.2470056 Z M127.012651,91.5943584 L126.378115,91.5943584 L126.378115,90.2049472 L127.012651,90.2049472 L127.012651,88.6136558 L128.738352,88.6136558 L128.738352,90.2049472 L129.942191,90.2049472 L129.942191,91.5943584 L128.738352,91.5943584 L128.738352,95.2875796 C128.738352,95.4102917 128.778875,95.5122204 128.859922,95.5933688 C128.940969,95.6745171 129.03684,95.7150907 129.147538,95.7150907 L129.942191,95.7150907 L129.942191,97.2470056 L129.147538,97.2470056 C128.507069,97.2470056 127.991143,97.0589817 127.599745,96.6829284 C127.208347,96.3068751 127.012651,95.8021795 127.012651,95.1688265 L127.012651,91.5943584 Z M131.327417,97.2470056 L131.327417,90.2049472 L133.053118,90.2049472 L133.053118,91.1787226 L133.076839,91.1787226 C133.5394,90.3909898 134.134395,89.9971293 134.861842,89.9971293 L135.033819,89.9971293 L135.033819,91.7487374 L134.606842,91.7487374 C134.195676,91.7487374 133.841842,91.8892605 133.545328,92.1703109 C133.248814,92.4513613 133.084746,92.797721 133.053118,93.2094004 L133.053118,97.2470056 L131.327417,97.2470056 Z M143.517547,93.7200387 C143.517547,93.9456708 143.485919,94.2009873 143.422663,94.4859962 L137.74742,94.4859962 C137.846258,94.8897587 138.079512,95.2361185 138.447188,95.5250858 C138.814865,95.8140531 139.237885,95.9585345 139.716261,95.9585345 C140.06417,95.9585345 140.375505,95.8793666 140.650274,95.7210284 C140.925043,95.5626901 141.139518,95.3667495 141.293705,95.1332005 L143.167662,95.1332005 C142.918591,95.8378058 142.477781,96.4008877 141.845218,96.8224633 C141.212656,97.2440389 140.50301,97.4548235 139.716261,97.4548235 C138.656718,97.4548235 137.756319,97.095599 137.015035,96.3771392 C136.27375,95.6586794 135.903114,94.7729881 135.903114,93.7200387 C135.903114,92.6670894 136.275727,91.7833773 137.020965,91.068876 C137.766203,90.3543746 138.672532,89.9971293 139.739982,89.9971293 C140.78371,89.9971293 141.674226,90.358333 142.411556,91.0807513 C143.148887,91.8031695 143.517547,92.6829232 143.517547,93.7200387 Z M137.771141,93.0372085 L141.673241,93.0372085 C141.58231,92.5899029 141.36487,92.2148448 141.020914,91.9120229 C140.676958,91.609201 140.249985,91.4577923 139.739982,91.4577923 C139.237885,91.4577923 138.806958,91.609201 138.447188,91.9120229 C138.087419,92.2148448 137.862072,92.5899029 137.771141,93.0372085 Z M148.585454,99.5330026 C147.644517,99.5330026 146.856791,99.3044052 146.222252,98.8472035 C145.587713,98.3900018 145.213123,97.7833775 145.098471,97.0273124 L146.907195,97.0273124 C146.986265,97.3439889 147.179985,97.5953471 147.488359,97.7813945 C147.796733,97.967442 148.162428,98.0604643 148.585454,98.0604643 C149.21011,98.0604643 149.69342,97.9149932 150.035399,97.6240467 C150.377378,97.3331001 150.548365,96.8947077 150.548365,96.3088562 L150.548365,95.7625919 L150.512783,95.7388413 C150.243944,96.039684 149.917784,96.2930214 149.534293,96.4988611 C149.150802,96.7047008 148.741619,96.8076192 148.306733,96.8076192 C147.318354,96.8076192 146.494058,96.4879786 145.833821,95.8486879 C145.173584,95.2093973 144.84347,94.3949571 144.84347,93.4053431 C144.84347,92.4236459 145.173584,91.6101954 145.833821,90.964967 C146.494058,90.3197386 147.318354,89.9971293 148.306733,89.9971293 C148.816736,89.9971293 149.259523,90.1129124 149.635107,90.3444821 C150.010691,90.5760518 150.303247,90.8501708 150.512783,91.1668473 L150.548365,91.1430966 L150.548365,90.2049472 L152.274066,90.2049472 L152.274066,96.4216716 C152.274066,97.4033687 151.940987,98.1673393 151.27482,98.7136063 C150.608652,99.2598732 149.712206,99.5330026 148.585454,99.5330026 Z M147.203707,94.7947542 C147.579291,95.174766 148.038881,95.3647691 148.582489,95.3647691 C149.126097,95.3647691 149.58964,95.1737764 149.973131,94.7917854 C150.356622,94.4097944 150.548365,93.9476516 150.548365,93.4053431 C150.548365,92.8630346 150.356622,92.4008917 149.973131,92.0189007 C149.58964,91.6369097 149.126097,91.445917 148.582489,91.445917 C148.038881,91.445917 147.579291,91.6369097 147.203707,92.0189007 C146.828123,92.4008917 146.640334,92.8630346 146.640334,93.4053431 C146.640334,93.9476516 146.828123,94.410784 147.203707,94.7947542 Z M159.94535,93.7200387 C159.94535,93.1262703 159.736805,92.6176163 159.319709,92.1940615 C158.902613,91.7705067 158.395583,91.5587325 157.798602,91.5587325 C157.205574,91.5587325 156.698544,91.7714963 156.277494,92.1970303 C155.856445,92.6225644 155.645923,93.1302288 155.645923,93.7200387 C155.645923,94.3217241 155.856445,94.8353261 156.277494,95.2608601 C156.698544,95.6863942 157.205574,95.899158 157.798602,95.899158 C158.399536,95.899158 158.907555,95.6863942 159.322674,95.2608601 C159.737793,94.8353261 159.94535,94.3217241 159.94535,93.7200387 Z M159.94535,97.2470056 L159.94535,96.1188512 L159.921629,96.1188512 C159.696279,96.4909461 159.384944,96.8066282 158.987616,97.0659071 C158.590287,97.325186 158.120814,97.4548235 157.579183,97.4548235 C156.543362,97.4548235 155.662729,97.0975782 154.937259,96.3830768 C154.211789,95.6685755 153.849059,94.780905 153.849059,93.7200387 C153.849059,92.6670894 154.211789,91.7833773 154.937259,91.068876 C155.662729,90.3543746 156.543362,89.9971293 157.579183,89.9971293 C158.535933,89.9971293 159.316741,90.4068234 159.921629,91.2262238 L159.94535,91.2262238 L159.94535,90.2049472 L161.671051,90.2049472 L161.671051,97.2470056 L159.94535,97.2470056 Z M169.200009,92.3840665 L167.52768,92.3840665 C167.52768,92.06739 167.414019,91.8219694 167.186691,91.6477973 C166.959364,91.4736252 166.655937,91.3865405 166.276399,91.3865405 C165.912676,91.3865405 165.639887,91.4577916 165.458025,91.600296 C165.276164,91.7428005 165.185234,91.9268659 165.185234,92.1524979 C165.185234,92.3860468 165.290001,92.5661539 165.499537,92.6928245 C165.709073,92.8194951 165.971978,92.898663 166.28826,92.9303307 C166.604541,92.9619983 166.944538,93.0164263 167.308261,93.0936162 C167.671985,93.1708061 168.011982,93.2658076 168.328263,93.3786236 C168.644545,93.4914396 168.907449,93.7061826 169.116986,94.0228591 C169.326522,94.3395356 169.431289,94.7452713 169.431289,95.2400783 C169.431289,95.9763512 169.137745,96.5295371 168.550648,96.8996528 C167.96355,97.2697685 167.205475,97.4548235 166.276399,97.4548235 C165.363137,97.4548235 164.628782,97.2381013 164.073313,96.8046503 C163.517845,96.3711994 163.240114,95.7922838 163.240114,95.0678863 L164.930234,95.0678863 C164.930234,95.3608121 165.055756,95.5983159 165.306804,95.7804049 C165.557852,95.9624939 165.881047,96.053537 166.276399,96.053537 C166.687565,96.053537 167.01669,95.9832755 167.263785,95.8427503 C167.510879,95.7022251 167.634425,95.5013364 167.634425,95.2400783 C167.634425,94.9906956 167.529658,94.8006925 167.320122,94.6700635 C167.110586,94.5394344 166.849657,94.4602665 166.53733,94.4325573 C166.225002,94.4048481 165.886982,94.3563577 165.523258,94.2870848 C165.159535,94.2178118 164.821514,94.1287479 164.509186,94.0198903 C164.196859,93.9110328 163.935931,93.6982689 163.726394,93.3815924 C163.516858,93.0649159 163.412091,92.6552219 163.412091,92.1524979 C163.412091,91.4558096 163.667089,90.9224157 164.177093,90.5523 C164.687096,90.1821843 165.386858,89.9971293 166.276399,89.9971293 C167.181754,89.9971293 167.895353,90.2089035 168.417217,90.6324583 C168.939081,91.0560132 169.200009,91.6398767 169.200009,92.3840665 Z M180.492221,93.7200387 C180.492221,93.1262703 180.283676,92.6176163 179.86658,92.1940615 C179.449485,91.7705067 178.942454,91.5587325 178.345473,91.5587325 C177.752446,91.5587325 177.245415,91.7714963 176.824365,92.1970303 C176.403316,92.6225644 176.192794,93.1302288 176.192794,93.7200387 C176.192794,94.3217241 176.403316,94.8353261 176.824365,95.2608601 C177.245415,95.6863942 177.752446,95.899158 178.345473,95.899158 C178.946407,95.899158 179.454426,95.6863942 179.869546,95.2608601 C180.284665,94.8353261 180.492221,94.3217241 180.492221,93.7200387 Z M180.492221,97.2470056 L180.492221,96.1188512 L180.4685,96.1188512 C180.24315,96.4909461 179.931815,96.8066282 179.534487,97.0659071 C179.137158,97.325186 178.667686,97.4548235 178.126054,97.4548235 C177.090233,97.4548235 176.2096,97.0975782 175.48413,96.3830768 C174.75866,95.6685755 174.395931,94.780905 174.395931,93.7200387 C174.395931,92.6670894 174.75866,91.7833773 175.48413,91.068876 C176.2096,90.3543746 177.090233,89.9971293 178.126054,89.9971293 C179.082805,89.9971293 179.863612,90.4068234 180.4685,91.2262238 L180.492221,91.2262238 L180.492221,90.2049472 L182.217922,90.2049472 L182.217922,97.2470056 L180.492221,97.2470056 Z M193.516064,93.7200387 C193.516064,93.1262703 193.307519,92.6176163 192.890424,92.1940615 C192.473328,91.7705067 191.966297,91.5587325 191.369316,91.5587325 C190.776289,91.5587325 190.269258,91.7714963 189.848209,92.1970303 C189.427159,92.6225644 189.216638,93.1302288 189.216638,93.7200387 C189.216638,94.3217241 189.427159,94.8353261 189.848209,95.2608601 C190.269258,95.6863942 190.776289,95.899158 191.369316,95.899158 C191.97025,95.899158 192.47827,95.6863942 192.893389,95.2608601 C193.308508,94.8353261 193.516064,94.3217241 193.516064,93.7200387 Z M193.516064,97.2470056 L193.516064,96.1188512 L193.492343,96.1188512 C193.266993,96.4909461 192.955658,96.8066282 192.55833,97.0659071 C192.161002,97.325186 191.691529,97.4548235 191.149897,97.4548235 C190.114076,97.4548235 189.233444,97.0975782 188.507973,96.3830768 C187.782503,95.6685755 187.419774,94.780905 187.419774,93.7200387 C187.419774,92.6670894 187.782503,91.7833773 188.507973,91.068876 C189.233444,90.3543746 190.114076,89.9971293 191.149897,89.9971293 C192.106648,89.9971293 192.887455,90.4068234 193.492343,91.2262238 L193.516064,91.2262238 L193.516064,88.1267681 L195.241765,88.1267681 L195.241765,97.2470056 L193.516064,97.2470056 Z M202.907119,93.7200387 C202.907119,93.1262703 202.698574,92.6176163 202.281478,92.1940615 C201.864383,91.7705067 201.357352,91.5587325 200.760371,91.5587325 C200.167344,91.5587325 199.660313,91.7714963 199.239263,92.1970303 C198.818214,92.6225644 198.607692,93.1302288 198.607692,93.7200387 C198.607692,94.3217241 198.818214,94.8353261 199.239263,95.2608601 C199.660313,95.6863942 200.167344,95.899158 200.760371,95.899158 C201.361305,95.899158 201.869324,95.6863942 202.284444,95.2608601 C202.699563,94.8353261 202.907119,94.3217241 202.907119,93.7200387 Z M204.703983,93.7200387 C204.703983,94.7729881 204.313579,95.6586794 203.53276,96.3771392 C202.751941,97.095599 201.82782,97.4548235 200.760371,97.4548235 C199.700829,97.4548235 198.777697,97.095599 197.990947,96.3771392 C197.204198,95.6586794 196.810829,94.7729881 196.810829,93.7200387 C196.810829,92.6750063 197.203209,91.7932734 197.987982,91.0748136 C198.772755,90.3563538 199.695887,89.9971293 200.757406,89.9971293 C201.818925,89.9971293 202.742057,90.3563538 203.52683,91.0748136 C204.311603,91.7932734 204.703983,92.6750063 204.703983,93.7200387 Z M208.004678,97.2470056 L206.278977,97.2470056 L206.278977,90.2049472 L208.004678,90.2049472 L208.004678,91.2380991 L208.028399,91.2380991 C208.475146,90.4107818 209.054327,89.9971293 209.76596,89.9971293 C210.244335,89.9971293 210.644623,90.1228084 210.966834,90.3741704 C211.289046,90.6255323 211.531195,90.9471521 211.693289,91.3390392 C211.847476,90.9906951 212.109393,90.6799609 212.479047,90.4068275 C212.8487,90.133694 213.258871,89.9971293 213.709572,89.9971293 C214.52795,89.9971293 215.17434,90.2524459 215.648762,90.7630867 C216.123184,91.2737276 216.360391,91.9605094 216.360391,92.8234529 L216.360391,97.2470056 L214.63469,97.2470056 L214.63469,92.7937646 C214.63469,92.4454205 214.517075,92.1524991 214.281841,91.9149917 C214.046606,91.6774844 213.755039,91.5587325 213.40713,91.5587325 C213.067127,91.5587325 212.777537,91.6774844 212.538349,91.9149917 C212.299161,92.1524991 212.179569,92.4454205 212.179569,92.7937646 L212.179569,97.2470056 L210.453868,97.2470056 L210.453868,92.7937646 C210.453868,92.4454205 210.337241,92.1524991 210.103984,91.9149917 C209.870726,91.6774844 209.580147,91.5587325 209.232238,91.5587325 C208.892236,91.5587325 208.602645,91.6774844 208.363457,91.9149917 C208.12427,92.1524991 208.004678,92.4454205 208.004678,92.7937646 L208.004678,97.2470056 Z M218.172594,90.2049472 L219.898295,90.2049472 L219.898295,97.2470056 L218.172594,97.2470056 L218.172594,90.2049472 Z M218.30899,89.3796132 C218.111314,89.1777319 218.012478,88.9382489 218.012478,88.661157 C218.012478,88.3840651 218.112303,88.1445821 218.311955,87.9427008 C218.511608,87.7408195 218.752769,87.6398804 219.035445,87.6398804 C219.318121,87.6398804 219.558294,87.7408195 219.75597,87.9427008 C219.953645,88.1445821 220.052482,88.3840651 220.052482,88.661157 C220.052482,88.9382489 219.953645,89.1777319 219.75597,89.3796132 C219.558294,89.5814945 219.318121,89.6824336 219.035445,89.6824336 C218.752769,89.6824336 218.510619,89.5814945 218.30899,89.3796132 Z M229.265629,92.8828294 L227.480626,92.8828294 C227.318532,92.4790669 227.065511,92.1485408 226.721555,91.8912411 C226.377599,91.6339415 225.958533,91.5052936 225.464343,91.5052936 C224.808059,91.5052936 224.275331,91.7160782 223.866142,92.1376538 C223.456954,92.5592294 223.252362,93.0866858 223.252362,93.7200387 C223.252362,94.3533917 223.456954,94.8808481 223.866142,95.3024237 C224.275331,95.7239993 224.808059,95.9347839 225.464343,95.9347839 C225.958533,95.9347839 226.377599,95.8071256 226.721555,95.5518052 C227.065511,95.2964848 227.318532,94.964969 227.480626,94.557248 L229.265629,94.557248 C229.095628,95.4479007 228.672608,96.1534849 227.996557,96.6740219 C227.320506,97.1945589 226.476443,97.4548235 225.464343,97.4548235 C224.305963,97.4548235 223.350215,97.0995574 222.59707,96.3890145 C221.843926,95.6784716 221.467359,94.7888219 221.467359,93.7200387 C221.467359,92.6512556 221.843926,91.7616059 222.59707,91.051063 C223.350215,90.3405201 224.305963,89.985254 225.464343,89.985254 C226.476443,89.985254 227.318529,90.2455186 227.990627,90.7660556 C228.662725,91.2865926 229.087721,91.9921768 229.265629,92.8828294 Z M230.716088,90.2049472 L232.441789,90.2049472 L232.441789,97.2470056 L230.716088,97.2470056 L230.716088,90.2049472 Z M230.852483,89.3796132 C230.654808,89.1777319 230.555971,88.9382489 230.555971,88.661157 C230.555971,88.3840651 230.655796,88.1445821 230.855449,87.9427008 C231.055101,87.7408195 231.296262,87.6398804 231.578938,87.6398804 C231.861615,87.6398804 232.101787,87.7408195 232.299463,87.9427008 C232.497139,88.1445821 232.595975,88.3840651 232.595975,88.661157 C232.595975,88.9382489 232.497139,89.1777319 232.299463,89.3796132 C232.101787,89.5814945 231.861615,89.6824336 231.578938,89.6824336 C231.296262,89.6824336 231.054113,89.5814945 230.852483,89.3796132 Z M234.253992,97.2470056 L234.253992,88.1267681 L235.979693,88.1267681 L235.979693,97.2470056 L234.253992,97.2470056 Z M237.791897,90.2049472 L239.517597,90.2049472 L239.517597,97.2470056 L237.791897,97.2470056 L237.791897,90.2049472 Z M237.928292,89.3796132 C237.730616,89.1777319 237.63178,88.9382489 237.63178,88.661157 C237.63178,88.3840651 237.731605,88.1445821 237.931257,87.9427008 C238.13091,87.7408195 238.372071,87.6398804 238.654747,87.6398804 C238.937423,87.6398804 239.177596,87.7408195 239.375272,87.9427008 C239.572947,88.1445821 239.671784,88.3840651 239.671784,88.661157 C239.671784,88.9382489 239.572947,89.1777319 239.375272,89.3796132 C239.177596,89.5814945 238.937423,89.6824336 238.654747,89.6824336 C238.372071,89.6824336 238.129921,89.5814945 237.928292,89.3796132 Z M247.182951,93.7200387 C247.182951,93.1262703 246.974407,92.6176163 246.557311,92.1940615 C246.140215,91.7705067 245.633184,91.5587325 245.036203,91.5587325 C244.443176,91.5587325 243.936145,91.7714963 243.515096,92.1970303 C243.094046,92.6225644 242.883525,93.1302288 242.883525,93.7200387 C242.883525,94.3217241 243.094046,94.8353261 243.515096,95.2608601 C243.936145,95.6863942 244.443176,95.899158 245.036203,95.899158 C245.637138,95.899158 246.145157,95.6863942 246.560276,95.2608601 C246.975395,94.8353261 247.182951,94.3217241 247.182951,93.7200387 Z M248.979815,93.7200387 C248.979815,94.7729881 248.589411,95.6586794 247.808592,96.3771392 C247.027773,97.095599 246.103652,97.4548235 245.036203,97.4548235 C243.976661,97.4548235 243.053529,97.095599 242.266779,96.3771392 C241.48003,95.6586794 241.086661,94.7729881 241.086661,93.7200387 C241.086661,92.6750063 241.479041,91.7932734 242.263814,91.0748136 C243.048587,90.3563538 243.971719,89.9971293 245.033238,89.9971293 C246.094757,89.9971293 247.017889,90.3563538 247.802662,91.0748136 C248.587435,91.7932734 248.979815,92.6750063 248.979815,93.7200387 Z" id="envíosyentregasadomicilio"></path>
                <path d="M20.5717128,81.7565 L7.41693023,81.7565 L21.4293064,79.90075 C21.8888115,79.2654406 22.491393,78.7464552 23.1886269,78.3855 C23.8869831,78.0269111 24.6599446,77.836567 25.445452,77.82975 C26.3746823,77.8294337 27.2848001,78.092868 28.0693873,78.58925 C28.3905529,77.7110691 28.9031296,76.914858 29.5701759,76.258 C30.239296,75.6032027 31.0454404,75.104109 31.930815,74.7965 C32.5950842,74.566881 33.2932477,74.4498442 33.9963114,74.45025 C35.1699023,74.449691 36.3202541,74.7764164 37.3173549,75.3935 C38.0436794,73.6148089 39.2865188,72.0930544 40.8863984,71.0235 C42.4838641,69.9513153 44.3662604,69.3795201 46.291996,69.3814949 L46.3170718,69.3814949 C46.6984741,69.4055171 47.0783775,69.4491586 47.4552639,69.51225 C47.7310981,70.068 48.0297513,70.61975 48.3429484,71.1515 C49.2536309,72.7053519 50.3226722,74.1613925 51.5330961,75.4965 C52.7199991,76.799334 54.0445805,77.9705434 55.4837937,78.98975 C57.0536122,80.0988496 58.7444901,81.0269426 60.5240364,81.75625 L20.5717128,81.7565 Z M87.8790131,81.9425 C87.9973711,81.8955 88.1257594,81.8425 88.2614196,81.786 C89.5487891,81.2527786 90.7987897,80.6339698 92.0029848,79.93375 C93.1712593,79.2543193 94.2894665,78.4927224 95.3491041,77.65475 L204.195025,82.01775 L87.8790131,81.9425 Z M66.8990657,78.04775 C63.9575294,77.4447384 61.1716622,76.2455199 58.7143134,74.5245 C56.3028005,72.8084696 54.2883282,70.5969412 52.8066977,68.039 C51.2138626,65.2812075 50.1839565,62.2365178 49.7762831,59.08025 L49.7153488,58.6485 C49.2359265,55.4881887 49.381941,52.264861 50.1451486,49.1605 C50.8544471,46.2780146 52.1588167,43.5746497 53.9749808,41.223 C55.8063148,38.8862366 58.1085258,36.9580438 60.7331689,35.56275 C63.5075566,34.0751837 66.5287672,33.0997575 69.6511385,32.6835 C72.7183207,32.2222443 75.846581,32.3675062 78.8574803,33.111 C81.6728399,33.8071756 84.3086029,35.0893349 86.5916198,36.87325 C88.8392892,38.6373937 90.7109404,40.8312973 92.0967685,43.32625 C93.5261699,45.8950427 94.4616629,48.7074481 94.8551102,51.61875 C95.0597609,53.0332608 95.1724194,54.4594885 95.1923802,55.8885 L63.1266572,60.3815 C63.5219392,62.8395234 65.0686437,64.9625381 67.291001,66.0975 C69.585607,67.3323333 72.437398,67.7111667 75.8463741,67.234 C82.0864119,66.3591667 87.0584483,64.22325 90.7624833,60.82625 L92.3457715,72.05875 C90.3964473,73.7088623 88.1985157,75.042464 85.8328251,76.0105 C83.3840863,77.029 80.3396293,77.7935 76.699454,78.304 C75.2707648,78.5072834 73.8295735,78.6107855 72.3864105,78.6138588 C70.5423664,78.6190694 68.7029589,78.4293411 66.8990657,78.04775 L66.8990657,78.04775 Z M71.1619575,43.39775 C69.3003903,43.6475743 67.5208745,44.3188822 65.959725,45.36025 C64.3976677,46.4009167 63.3348702,47.53375 62.7713327,48.75875 C62.2077951,49.98375 61.9619683,51.0606667 62.0338524,51.9895 L81.2725339,49.294 C81.1429754,48.3721667 80.6977958,47.4066667 79.9369949,46.3975 C79.1761941,45.3883333 77.9856771,44.5716667 76.3654439,43.9475 C75.2149454,43.5045345 73.9915873,43.2796798 72.7582851,43.2844241 C72.2239569,43.2846603 71.6902945,43.322085 71.1612053,43.3965 L71.1619575,43.39775 Z M15.8717492,73.40025 C15.8716162,72.8730226 16.0815814,72.36734 16.4554478,71.9944637 C16.8293142,71.6215873 17.3364514,71.4120663 17.8652781,71.412 C18.3940817,71.4120663 18.9011932,71.6215952 19.2750197,71.9944788 C19.6488463,72.3673624 19.8587557,72.8730456 19.8585563,73.40025 C19.8585563,74.4978183 18.9661757,75.3876119 17.8652781,75.3877501 C17.3362137,75.3879491 16.8287684,75.1784687 16.4547104,74.8054482 C16.0806525,74.4324276 15.8706642,73.9264643 15.8709966,73.399 L15.8717492,73.40025 Z M96.4905561,29.981 L109.404611,28.1715 L110.17168,33.6145 C110.828667,31.5843333 112.229403,29.817 114.373889,28.3125 C116.518374,26.808 119.063906,25.8490833 122.010483,25.43575 C127.325223,24.6909167 131.666853,25.7125833 135.035373,28.50075 C138.403893,31.2889167 140.48594,35.5055833 141.281513,41.15075 L145.008283,67.58975 L132.095733,69.3985 L128.587624,44.515 C128.327504,42.6721667 127.714149,41.1428333 126.747559,39.927 C125.895444,38.7865228 124.67212,37.9768866 123.287094,37.63675 C122.034765,37.3296734 120.736079,37.2574457 119.457262,37.42375 C117.030757,37.7640833 115.110032,38.8704167 113.695086,40.74275 C112.28014,42.6150833 111.747195,44.7900833 112.096251,47.26775 L115.542673,71.71775 L102.628619,73.52725 L96.4905561,29.981 Z M1.01456825,69.156 C0.195216818,68.3471248 -0.0531823768,67.1250787 0.38566633,66.062 C0.823742019,64.9982373 1.86295247,64.303674 3.01637209,64.30375 C4.57694089,64.3040841 5.84619009,65.5572277 5.861727,67.113 C5.87256844,68.2627278 5.18670968,69.3054327 4.12472396,69.75375 C3.77427147,69.9013656 3.39782079,69.9778558 3.01737513,69.97875 C2.26623923,69.9785168 1.54570057,69.6820238 1.0130637,69.154 L1.01456825,69.156 Z M28.595729,68.47275 C27.0255221,68.47275 25.7523462,67.204208 25.7513758,65.63875 C25.7506451,64.8859871 26.0500731,64.1638055 26.583713,63.6312637 C27.1173529,63.0987218 27.8414346,62.7995 28.5964813,62.7995 C30.1651895,62.7995 31.4379652,64.0652906 31.4418437,65.62925 C31.4435671,66.3819724 31.1451812,67.1045253 30.6123694,67.6378357 C30.0795576,68.1711462 29.3560016,68.4714917 28.6009949,68.47275 L28.595729,68.47275 Z M162.640105,64.15 C159.863514,63.3927991 157.271855,62.0767682 155.024825,60.283 C152.744794,58.4575364 150.837885,56.2122362 149.407838,53.66925 C147.915964,51.0453661 146.939867,48.161824 146.531891,45.17325 C146.098162,42.1883776 146.239268,39.1484293 146.947648,36.21625 C147.618859,33.379155 148.830867,30.6971547 150.517695,28.31625 C152.181622,25.9746085 154.308756,23.9973526 156.768097,22.50625 C159.285441,20.9739529 162.094905,19.9803332 165.018047,19.5885 C166.741665,19.3654922 168.484343,19.3279429 170.216016,19.4765 C172.066505,19.6049716 173.869638,20.1175969 175.509776,20.9815 C177.133519,21.841 178.273801,22.9293333 178.930621,24.2465 L175.77583,1.86425 L188.689885,0.0555 L197.179058,60.277 L184.266508,62.08575 L183.462827,56.3835 C183.087191,58.3168333 181.787929,60.0701667 179.565039,61.6435 C177.34215,63.2168333 174.612813,64.2305 171.377027,64.6845 C170.341178,64.8310905 169.296303,64.9051883 168.250071,64.9062662 C166.353713,64.9086054 164.46587,64.6534265 162.638601,64.14775 L162.640105,64.15 Z M169.002847,30.9235 C165.883246,31.3605 163.402578,32.7800833 161.560841,35.18225 C159.742289,37.496358 158.974984,40.4621452 159.443939,43.3645 C159.795456,46.2834241 161.353209,48.9235422 163.741436,50.648 C166.175129,52.4506667 168.952027,53.1333333 172.072129,52.696 C173.516665,52.4941667 175.083821,51.9075 176.773598,50.936 C178.463374,49.9645 179.830091,48.4811667 180.873747,46.486 C181.904046,44.5644153 182.290671,42.3646008 181.977084,40.20825 C181.68272,38.0486843 180.702452,36.0398446 179.179875,34.476 C177.625173,32.8443333 175.901126,31.7939167 174.007733,31.32475 C172.819698,31.014461 171.598246,30.8492501 170.370233,30.8326165 C169.912424,30.8303651 169.455009,30.8599374 169.001343,30.92125 L169.002847,30.9235 Z M216.914491,57.03 C213.854544,56.3034434 210.966735,54.9870516 208.413784,53.155 C205.907402,51.3547914 203.784053,49.0768403 202.166641,46.453 C200.532903,43.8224413 199.470728,40.8795066 199.048712,37.81425 C198.607311,34.7521189 198.814805,31.6317388 199.657804,28.6545 C200.486807,25.6876718 201.898269,22.9144141 203.810362,20.4955 C205.757416,18.0327517 208.168951,15.973575 210.90908,14.434 C213.73461,12.8310024 216.842011,11.7825218 220.063264,11.34525 C223.25232,10.8898987 226.499359,11.048085 229.628692,11.81125 C232.698969,12.5430745 235.599424,13.8567659 238.172028,15.68075 C240.699313,17.4682336 242.838918,19.7456638 244.462803,22.37675 C246.096227,25.0071872 247.158381,27.9498096 247.580732,31.01475 C248.02212,34.0771309 247.814626,37.1977529 246.97164,40.17525 C246.138298,43.1506661 244.711156,45.9277821 242.775701,48.34025 C240.806769,50.800075 238.381372,52.8591071 235.631846,54.405 C232.834709,55.9988816 229.757031,57.0433974 226.565428,57.482 C225.343457,57.6543322 224.110907,57.7413772 222.876772,57.7425029 C220.867375,57.7434695 218.865152,57.5034964 216.913238,57.02775 L216.914491,57.03 Z M221.707486,23.01 C218.665138,23.3761923 215.913905,24.9910242 214.11653,27.4655 C212.257148,29.8988281 211.478461,32.9851829 211.961763,36.006 C212.261137,38.2545156 213.235915,40.360104 214.75797,42.046 C216.29679,43.7683333 218.000024,44.8805833 219.867672,45.38275 C221.735321,45.8849167 223.420249,46.0305833 224.922459,45.81975 C226.366827,45.6179167 227.931643,45.017 229.616906,44.017 C231.302169,43.017 232.646568,41.4774167 233.650103,39.39825 C234.647329,37.3597135 235.002085,35.06792 234.66768,32.8245 C234.465235,31.3843333 233.862495,29.8239167 232.859462,28.14325 C231.856429,26.4625833 230.310086,25.108 228.220433,24.0795 C226.688314,23.308189 224.996855,22.9038089 223.280493,22.898499 C222.753827,22.898499 222.22779,22.9347884 221.706233,23.00775 L221.707486,23.01 Z" id="Unión_3"></path>
            </g>
        </g>
    </g>
</svg>